<svg xmlns="http://www.w3.org/2000/svg" xmlns:xlink="http://www.w3.org/1999/xlink" width="500" zoomAndPan="magnify" viewBox="0 0 375 374.999991" height="500" preserveAspectRatio="xMidYMid meet" version="1.0"><defs><g/></defs><g fill="#000000" fill-opacity="1"><g transform="translate(73.851558, 234.306539)"><g><path d="M 8.304688 0 L 34.683594 0 L 34.683594 -2.117188 C 29.632812 -3.582031 28.167969 -7.328125 28.167969 -20.679688 L 28.167969 -93.296875 C 28.167969 -106.648438 29.632812 -110.394531 34.683594 -111.859375 L 34.683594 -113.976562 L 8.304688 -113.976562 L 8.304688 -111.859375 C 13.1875 -110.394531 14.816406 -106.648438 14.816406 -93.296875 L 14.816406 -20.679688 C 14.816406 -7.328125 13.1875 -3.582031 8.304688 -2.117188 Z M 8.304688 0 "/></g></g></g><g fill="#000000" fill-opacity="1"><g transform="translate(116.836113, 234.306539)"><g><path d="M 8.304688 0 L 84.019531 0 L 85.15625 -18.398438 L 83.367188 -18.726562 C 77.667969 -6.511719 70.503906 -2.605469 54.871094 -2.605469 L 35.496094 -2.605469 C 30.773438 -2.605469 28.167969 -5.210938 28.167969 -9.933594 L 28.167969 -93.296875 C 28.167969 -106.648438 29.632812 -110.394531 34.683594 -111.859375 L 34.683594 -113.976562 L 8.304688 -113.976562 L 8.304688 -111.859375 C 13.1875 -110.394531 14.816406 -106.648438 14.816406 -93.296875 L 14.816406 -20.679688 C 14.816406 -7.328125 13.1875 -3.582031 8.304688 -2.117188 Z M 8.304688 0 "/></g></g></g><g fill="#000000" fill-opacity="1"><g transform="translate(205.247519, 234.306539)"><g><path d="M 8.304688 0 L 88.578125 0 L 89.878906 -21.65625 L 88.089844 -21.980469 C 82.226562 -6.839844 72.292969 -2.441406 56.664062 -2.441406 L 35.496094 -2.441406 C 30.773438 -2.441406 28.167969 -5.046875 28.167969 -9.769531 L 28.167969 -59.757812 L 49.011719 -59.757812 C 67.574219 -59.757812 72.292969 -56.011719 74.25 -48.683594 L 76.203125 -48.683594 L 76.203125 -73.269531 L 74.25 -73.269531 C 72.292969 -65.945312 67.574219 -62.199219 49.011719 -62.199219 L 28.167969 -62.199219 L 28.167969 -111.535156 L 52.105469 -111.535156 C 68.710938 -111.535156 78.320312 -106.648438 84.019531 -92.320312 L 85.808594 -92.808594 L 84.019531 -113.976562 L 8.304688 -113.976562 L 8.304688 -111.859375 C 13.1875 -110.394531 14.816406 -106.648438 14.816406 -93.296875 L 14.816406 -20.679688 C 14.816406 -7.328125 13.1875 -3.582031 8.304688 -2.117188 Z M 8.304688 0 "/></g></g></g><path stroke-linecap="round" transform="matrix(0.751169, 0, 0, 0.75, 93.516714, 90.83943)" fill="none" stroke-linejoin="miter" d="M 1.002195 1.000552 L 249.619902 1.000552 " stroke="#000000" stroke-width="2" stroke-opacity="1" stroke-miterlimit="4"/><path stroke-linecap="round" transform="matrix(0.750893, 0, 0, 0.75, 44.792918, 259.205109)" fill="none" stroke-linejoin="miter" d="M 0.998879 1.002563 L 379.553384 1.002563 " stroke="#000000" stroke-width="2" stroke-opacity="1" stroke-miterlimit="4"/></svg>