<svg xmlns="http://www.w3.org/2000/svg" xmlns:xlink="http://www.w3.org/1999/xlink" width="500" zoomAndPan="magnify" viewBox="0 0 375 374.999991" height="500" preserveAspectRatio="xMidYMid meet" version="1.0"><defs><g/><clipPath id="1b4471ef84"><path d="M 83 100 L 284 100 L 284 288.199219 L 83 288.199219 Z M 83 100 " clip-rule="nonzero"/></clipPath><clipPath id="60566d787e"><path d="M 155 123 L 298.605469 123 L 298.605469 286 L 155 286 Z M 155 123 " clip-rule="nonzero"/></clipPath></defs><path fill="#8bc349" d="M 219.730469 16.617188 L 216.6875 18.179688 C 205.546875 24.082031 196.257812 27.640625 188.820312 28.859375 C 187.734375 29.230469 184.554688 29.4375 179.28125 29.480469 C 176.738281 29.402344 171.65625 28.90625 164.039062 28 C 160.898438 27.769531 159.027344 27.675781 158.421875 27.722656 C 155.933594 27.699219 153.5 27.945312 151.125 28.460938 C 148.746094 28.980469 146.449219 29.902344 144.230469 31.226562 L 141.441406 33.210938 C 139.613281 34.707031 137.917969 36.449219 136.351562 38.4375 C 131.394531 44.808594 128.738281 51.601562 128.382812 58.820312 C 128.34375 61.09375 128.691406 63.210938 129.417969 65.179688 C 130.5 67.496094 131.3125 68.859375 131.863281 69.261719 C 132.609375 70.105469 133.464844 70.878906 134.433594 71.578125 C 139.671875 75.09375 146.359375 76.671875 154.492188 76.3125 C 161.808594 76.019531 169.046875 74.097656 176.21875 70.539062 C 176.863281 70.328125 178.972656 69.039062 182.542969 66.664062 L 186.589844 63.488281 L 190.449219 59.917969 C 192.957031 57.40625 195.363281 54.6875 197.667969 51.757812 C 203.480469 44.542969 210.835938 32.828125 219.730469 16.617188 " fill-opacity="1" fill-rule="nonzero"/><g clip-path="url(#1b4471ef84)"><path fill="#cbddd1" d="M 280.371094 286.570312 L 280.371094 286.574219 L 86.25 288.167969 C 85.351562 288.175781 84.492188 287.796875 83.886719 287.132812 C 83.285156 286.464844 82.992188 285.574219 83.082031 284.679688 L 101.757812 103.339844 C 101.925781 101.703125 103.316406 100.46875 104.957031 100.5 L 145.726562 101.265625 C 147.261719 101.296875 148.554688 102.429688 148.785156 103.953125 L 175.941406 282.566406 C 176.203125 284.292969 175.019531 285.90625 173.296875 286.167969 C 171.574219 286.433594 169.960938 285.246094 169.699219 283.519531 L 142.546875 104.90625 L 145.605469 107.59375 L 104.839844 106.828125 L 108.035156 103.988281 L 89.363281 285.328125 L 86.195312 281.839844 L 280.320312 280.246094 C 282.0625 280.230469 283.488281 281.636719 283.503906 283.382812 C 283.515625 285.128906 282.117188 286.558594 280.371094 286.570312 Z M 280.371094 286.570312 " fill-opacity="1" fill-rule="nonzero"/></g><g clip-path="url(#60566d787e)"><path fill="#cbddd1" d="M 155.90625 177.507812 L 199.382812 131.589844 C 200.246094 130.675781 201.570312 130.363281 202.75 130.796875 C 203.929688 131.226562 204.742188 132.316406 204.820312 133.570312 L 204.820312 133.574219 L 208.6875 195.910156 L 202.382812 196.179688 L 201.757812 169.035156 C 201.738281 168.15625 202.082031 167.308594 202.710938 166.695312 L 202.710938 166.699219 L 244.058594 126.308594 C 244.960938 125.429688 246.300781 125.167969 247.464844 125.652344 C 248.628906 126.132812 249.398438 127.261719 249.417969 128.523438 L 250.507812 194.644531 C 250.539062 196.378906 249.171875 197.8125 247.441406 197.859375 C 245.714844 197.910156 244.269531 196.554688 244.199219 194.820312 L 244.199219 194.824219 L 243.40625 174.4375 C 243.375 173.644531 243.640625 172.867188 244.15625 172.261719 L 244.15625 172.265625 L 285.066406 124.140625 C 285.90625 123.152344 287.257812 122.777344 288.484375 123.195312 C 289.707031 123.613281 290.554688 124.734375 290.621094 126.03125 L 298.542969 281.964844 C 298.628906 283.710938 297.292969 285.199219 295.550781 285.285156 C 293.808594 285.375 292.328125 284.03125 292.238281 282.289062 L 284.316406 126.351562 L 289.871094 128.242188 L 248.960938 176.367188 L 249.710938 174.191406 L 250.507812 194.574219 L 244.199219 194.75 L 243.105469 128.628906 L 248.464844 130.839844 L 207.113281 171.230469 L 208.066406 168.890625 L 208.695312 196.03125 C 208.734375 197.753906 207.390625 199.191406 205.671875 199.265625 C 203.957031 199.339844 202.496094 198.023438 202.390625 196.300781 L 202.390625 196.304688 L 198.523438 133.964844 L 203.960938 135.945312 L 160.484375 181.863281 C 159.28125 183.132812 157.285156 183.183594 156.019531 181.980469 C 154.757812 180.777344 154.703125 178.773438 155.90625 177.507812 Z M 155.90625 177.507812 " fill-opacity="1" fill-rule="nonzero"/></g><path fill="#cbddd1" d="M 126.128906 92.546875 C 126.742188 79.445312 127.289062 64.714844 137.65625 54.1875 C 147.714844 43.96875 166.792969 38.109375 184.574219 32.558594 C 186.238281 32.039062 188.007812 32.96875 188.527344 34.640625 C 189.042969 36.308594 188.113281 38.082031 186.449219 38.601562 C 167.996094 44.359375 150.832031 49.808594 142.148438 58.628906 L 142.148438 58.632812 C 133.773438 67.140625 133.074219 79.175781 132.433594 92.84375 C 132.355469 94.589844 130.875 95.9375 129.136719 95.855469 C 127.394531 95.773438 126.046875 94.292969 126.128906 92.546875 Z M 126.128906 92.546875 " fill-opacity="1" fill-rule="nonzero"/><path fill="#cbddd1" d="M 125.136719 79.445312 C 120.960938 70.203125 116.066406 59.65625 120.476562 47.136719 L 120.476562 47.140625 C 124.707031 35.132812 137.515625 21.417969 151.121094 17.234375 C 154.730469 16.125 158.328125 15.707031 161.859375 15.648438 L 161.859375 15.652344 C 166.191406 15.582031 170.527344 16.058594 174.667969 16.511719 C 178.941406 16.976562 183.027344 17.421875 187.109375 17.355469 C 188.261719 17.335938 189.402344 17.277344 190.539062 17.167969 C 202.976562 15.96875 215.847656 8.640625 229.535156 0.785156 C 230.746094 0.0898438 232.265625 0.273438 233.277344 1.238281 C 234.289062 2.203125 234.546875 3.71875 233.914062 4.964844 C 221.167969 30.058594 207.992188 56.132812 192.460938 69.300781 C 178.960938 80.75 163.914062 82.386719 149.414062 82.617188 C 146.777344 82.660156 144.144531 82.65625 141.539062 82.648438 L 141.539062 82.652344 L 141.535156 82.648438 C 139.789062 82.644531 138.378906 81.226562 138.382812 79.480469 C 138.386719 77.734375 139.800781 76.320312 141.546875 76.324219 L 141.550781 76.324219 C 144.160156 76.328125 146.742188 76.332031 149.3125 76.289062 L 149.3125 76.292969 C 163.464844 76.066406 176.621094 74.449219 188.382812 64.472656 C 202.707031 52.324219 215.285156 27.699219 228.289062 2.09375 L 232.671875 6.273438 C 219.34375 13.925781 205.207031 22.109375 191.144531 23.464844 L 191.144531 23.46875 C 189.820312 23.59375 188.507812 23.660156 187.207031 23.683594 C 182.671875 23.753906 178.195312 23.261719 173.984375 22.800781 C 169.773438 22.339844 165.828125 21.914062 161.960938 21.976562 C 158.859375 22.027344 155.875 22.390625 152.96875 23.285156 C 141.46875 26.820312 130.058594 38.9375 126.425781 49.246094 C 122.976562 59.042969 126.574219 67.289062 130.886719 76.835938 C 131.605469 78.425781 130.902344 80.300781 129.316406 81.023438 C 127.726562 81.742188 125.855469 81.039062 125.136719 79.445312 Z M 125.136719 79.445312 " fill-opacity="1" fill-rule="nonzero"/><path fill="#cbddd1" d="M 175.136719 227.265625 L 193.839844 227.488281 C 195.585938 227.507812 196.980469 228.941406 196.960938 230.6875 C 196.9375 232.4375 195.507812 233.835938 193.765625 233.816406 L 175.0625 233.59375 C 173.320312 233.574219 171.925781 232.140625 171.945312 230.390625 C 171.964844 228.644531 173.394531 227.246094 175.136719 227.265625 Z M 175.136719 227.265625 " fill-opacity="1" fill-rule="nonzero"/><path fill="#cbddd1" d="M 215.15625 228.710938 L 233.859375 228.933594 C 235.601562 228.953125 237 230.386719 236.976562 232.132812 C 236.957031 233.878906 235.527344 235.28125 233.785156 235.257812 L 233.785156 235.261719 L 215.082031 235.035156 C 213.339844 235.015625 211.945312 233.582031 211.964844 231.835938 C 211.984375 230.089844 213.414062 228.6875 215.15625 228.710938 Z M 215.15625 228.710938 " fill-opacity="1" fill-rule="nonzero"/><path fill="#cbddd1" d="M 256.191406 228.574219 L 256.191406 228.578125 L 274.894531 228.796875 C 276.636719 228.820312 278.03125 230.25 278.011719 232 C 277.992188 233.746094 276.5625 235.144531 274.816406 235.125 L 256.113281 234.902344 C 254.371094 234.882812 252.976562 233.449219 252.996094 231.703125 C 253.015625 229.953125 254.445312 228.554688 256.191406 228.574219 Z M 256.191406 228.574219 " fill-opacity="1" fill-rule="nonzero"/><g fill="#cbddd1" fill-opacity="1"><g transform="translate(129.738167, 360.264887)"><g><path d="M 6.8125 0 L 6.8125 -49.5 L 12.5625 -49.5 L 12.5625 0 Z M 6.8125 0 "/></g></g></g><g fill="#cbddd1" fill-opacity="1"><g transform="translate(163.42493, 360.264887)"><g><path d="M 6.8125 0 L 6.8125 -49.5 L 12.5625 -49.5 L 12.5625 -5.21875 L 34.40625 -5.21875 L 34.40625 0 Z M 6.8125 0 "/></g></g></g><g fill="#cbddd1" fill-opacity="1"><g transform="translate(213.769937, 360.264887)"><g><path d="M 34.40625 0 L 6.8125 0 L 6.8125 -49.5 L 34.40625 -49.5 L 34.40625 -44.390625 L 12.5625 -44.390625 L 12.5625 -28.4375 L 33.078125 -28.4375 L 33.078125 -23.359375 L 12.5625 -23.359375 L 12.5625 -5.140625 L 34.40625 -5.140625 Z M 34.40625 0 "/></g></g></g></svg>