<svg xmlns="http://www.w3.org/2000/svg" xmlns:xlink="http://www.w3.org/1999/xlink" width="500" zoomAndPan="magnify" viewBox="0 0 375 374.999991" height="500" preserveAspectRatio="xMidYMid meet" version="1.0"><defs><g/><clipPath id="b7314c6c91"><path d="M 112.710938 121 L 252 121 L 252 251 L 112.710938 251 Z M 112.710938 121 " clip-rule="nonzero"/></clipPath><clipPath id="98065536f6"><path d="M 162 136 L 262.289062 136 L 262.289062 249 L 162 249 Z M 162 136 " clip-rule="nonzero"/></clipPath><clipPath id="74721d2042"><path d="M 137 51.574219 L 218 51.574219 L 218 109 L 137 109 Z M 137 51.574219 " clip-rule="nonzero"/></clipPath></defs><path fill="#8bc349" d="M 207.570312 63.066406 L 205.457031 64.148438 C 197.730469 68.234375 191.285156 70.699219 186.128906 71.539062 C 185.375 71.796875 183.167969 71.941406 179.507812 71.96875 C 177.746094 71.914062 174.21875 71.574219 168.933594 70.945312 C 166.757812 70.785156 165.457031 70.71875 165.039062 70.753906 C 163.3125 70.738281 161.625 70.90625 159.976562 71.265625 C 158.328125 71.625 156.734375 72.261719 155.195312 73.179688 L 153.257812 74.550781 C 151.992188 75.585938 150.8125 76.792969 149.726562 78.167969 C 146.289062 82.578125 144.445312 87.28125 144.199219 92.273438 C 144.171875 93.847656 144.414062 95.3125 144.917969 96.675781 C 145.667969 98.277344 146.234375 99.21875 146.613281 99.5 C 147.132812 100.082031 147.726562 100.617188 148.398438 101.101562 C 152.03125 103.535156 156.671875 104.628906 162.3125 104.378906 C 167.386719 104.175781 172.410156 102.84375 177.382812 100.382812 C 177.832031 100.238281 179.292969 99.34375 181.769531 97.703125 L 184.578125 95.503906 L 187.257812 93.035156 C 188.996094 91.296875 190.664062 89.414062 192.265625 87.386719 C 196.296875 82.394531 201.398438 74.285156 207.570312 63.066406 " fill-opacity="1" fill-rule="nonzero"/><g clip-path="url(#b7314c6c91)"><path fill="#cbddd1" d="M 249.640625 249.882812 L 114.96875 250.988281 C 114.347656 250.992188 113.75 250.730469 113.332031 250.269531 C 112.914062 249.8125 112.710938 249.191406 112.773438 248.574219 L 125.730469 123.082031 C 125.84375 121.949219 126.808594 121.097656 127.949219 121.117188 L 156.230469 121.648438 C 157.296875 121.667969 158.191406 122.453125 158.351562 123.507812 L 177.191406 247.109375 C 177.375 248.304688 176.550781 249.421875 175.355469 249.605469 C 174.160156 249.785156 173.042969 248.964844 172.863281 247.769531 L 154.023438 124.167969 L 156.148438 126.027344 L 127.867188 125.496094 L 130.085938 123.53125 L 117.128906 249.023438 L 114.933594 246.609375 L 249.605469 245.503906 C 250.8125 245.496094 251.800781 246.46875 251.8125 247.675781 C 251.820312 248.886719 250.847656 249.875 249.640625 249.882812 Z M 249.640625 249.882812 " fill-opacity="1" fill-rule="nonzero"/></g><g clip-path="url(#98065536f6)"><path fill="#cbddd1" d="M 163.292969 174.410156 L 193.453125 142.632812 C 194.054688 142 194.972656 141.785156 195.789062 142.082031 C 196.609375 142.378906 197.171875 143.132812 197.226562 144.003906 L 199.910156 187.144531 L 195.535156 187.328125 L 195.101562 168.546875 C 195.085938 167.9375 195.328125 167.351562 195.761719 166.925781 L 195.761719 166.929688 L 224.449219 138.976562 C 225.074219 138.367188 226.003906 138.1875 226.8125 138.523438 C 227.617188 138.855469 228.152344 139.636719 228.164062 140.511719 L 228.921875 186.269531 C 228.941406 187.46875 227.992188 188.460938 226.792969 188.492188 C 225.59375 188.527344 224.59375 187.589844 224.546875 186.390625 L 223.992188 172.285156 C 223.972656 171.734375 224.160156 171.199219 224.515625 170.777344 L 224.515625 170.78125 L 252.894531 137.476562 C 253.476562 136.792969 254.417969 136.535156 255.265625 136.824219 C 256.117188 137.113281 256.703125 137.890625 256.75 138.785156 L 262.246094 246.695312 C 262.304688 247.902344 261.375 248.933594 260.167969 248.992188 C 258.960938 249.054688 257.933594 248.125 257.871094 246.917969 L 252.375 139.007812 L 256.230469 140.316406 L 227.847656 173.621094 L 228.371094 172.113281 L 228.921875 186.21875 L 224.542969 186.339844 L 223.789062 140.582031 L 227.503906 142.113281 L 198.816406 170.0625 L 199.480469 168.445312 L 199.914062 187.226562 C 199.941406 188.421875 199.011719 189.414062 197.820312 189.464844 C 196.625 189.515625 195.613281 188.605469 195.539062 187.414062 L 192.855469 144.277344 L 196.628906 145.648438 L 166.46875 177.421875 C 165.636719 178.300781 164.25 178.335938 163.371094 177.503906 C 162.496094 176.671875 162.460938 175.285156 163.292969 174.410156 Z M 163.292969 174.410156 " fill-opacity="1" fill-rule="nonzero"/></g><path fill="#cbddd1" d="M 142.636719 115.613281 C 143.058594 106.546875 143.441406 96.355469 150.632812 89.066406 C 157.609375 81.996094 170.84375 77.941406 183.179688 74.101562 C 184.335938 73.742188 185.5625 74.386719 185.921875 75.539062 C 186.28125 76.695312 185.636719 77.921875 184.484375 78.28125 C 171.679688 82.265625 159.773438 86.039062 153.75 92.144531 C 147.9375 98.03125 147.453125 106.363281 147.011719 115.820312 C 146.953125 117.027344 145.929688 117.960938 144.722656 117.902344 C 143.511719 117.847656 142.578125 116.820312 142.636719 115.613281 Z M 142.636719 115.613281 " fill-opacity="1" fill-rule="nonzero"/><g clip-path="url(#74721d2042)"><path fill="#cbddd1" d="M 141.949219 106.546875 C 139.050781 100.148438 135.652344 92.851562 138.714844 84.191406 C 141.648438 75.882812 150.535156 66.390625 159.972656 63.496094 C 162.480469 62.726562 164.972656 62.4375 167.421875 62.398438 C 170.425781 62.351562 173.4375 62.683594 176.308594 62.996094 C 179.273438 63.316406 182.109375 63.625 184.9375 63.578125 C 185.738281 63.566406 186.53125 63.527344 187.320312 63.449219 C 195.945312 62.621094 204.878906 57.550781 214.371094 52.113281 C 215.210938 51.628906 216.265625 51.757812 216.96875 52.425781 C 217.667969 53.09375 217.847656 54.140625 217.410156 55.003906 C 208.566406 72.371094 199.425781 90.414062 188.652344 99.527344 C 179.285156 107.449219 168.847656 108.582031 158.789062 108.742188 C 156.960938 108.769531 155.132812 108.769531 153.324219 108.765625 L 153.320312 108.765625 C 152.113281 108.761719 151.132812 107.78125 151.136719 106.570312 C 151.140625 105.363281 152.121094 104.382812 153.332031 104.386719 C 155.144531 104.390625 156.9375 104.390625 158.71875 104.363281 C 168.535156 104.207031 177.664062 103.089844 185.824219 96.183594 C 195.761719 87.777344 204.484375 70.738281 213.507812 53.019531 L 216.546875 55.910156 C 207.300781 61.207031 197.496094 66.867188 187.738281 67.808594 C 186.820312 67.898438 185.910156 67.941406 185.007812 67.957031 C 181.859375 68.007812 178.753906 67.667969 175.832031 67.347656 C 172.914062 67.03125 170.175781 66.734375 167.492188 66.777344 C 165.339844 66.8125 163.273438 67.0625 161.257812 67.683594 C 153.277344 70.128906 145.363281 78.515625 142.84375 85.648438 C 140.449219 92.425781 142.945312 98.132812 145.9375 104.742188 C 146.4375 105.839844 145.949219 107.140625 144.847656 107.636719 C 143.746094 108.136719 142.445312 107.648438 141.949219 106.546875 Z M 141.949219 106.546875 " fill-opacity="1" fill-rule="nonzero"/></g><path fill="#cbddd1" d="M 176.636719 208.84375 L 189.609375 208.996094 C 190.820312 209.011719 191.789062 210.003906 191.773438 211.210938 C 191.757812 212.421875 190.765625 213.390625 189.558594 213.375 L 176.582031 213.222656 C 175.375 213.207031 174.40625 212.214844 174.421875 211.003906 C 174.433594 209.796875 175.425781 208.828125 176.636719 208.84375 Z M 176.636719 208.84375 " fill-opacity="1" fill-rule="nonzero"/><path fill="#cbddd1" d="M 204.398438 209.839844 L 204.398438 209.84375 L 217.371094 209.996094 C 218.582031 210.007812 219.550781 211 219.535156 212.210938 C 219.523438 213.417969 218.53125 214.386719 217.320312 214.375 L 204.347656 214.21875 C 203.136719 214.207031 202.167969 213.214844 202.183594 212.003906 C 202.195312 210.796875 203.1875 209.828125 204.398438 209.839844 Z M 204.398438 209.839844 " fill-opacity="1" fill-rule="nonzero"/><path fill="#cbddd1" d="M 232.863281 209.75 L 245.839844 209.902344 C 247.046875 209.917969 248.015625 210.910156 248 212.117188 C 247.988281 213.328125 246.996094 214.296875 245.785156 214.28125 L 232.8125 214.128906 C 231.601562 214.113281 230.632812 213.121094 230.648438 211.910156 C 230.664062 210.703125 231.65625 209.734375 232.863281 209.75 Z M 232.863281 209.75 " fill-opacity="1" fill-rule="nonzero"/><g fill="#cbddd1" fill-opacity="1"><g transform="translate(23.500591, 285.53765)"><g><path d="M 2.875 0 L 2.875 -20.875 L 5.296875 -20.875 L 5.296875 0 Z M 2.875 0 "/></g></g></g><g fill="#cbddd1" fill-opacity="1"><g transform="translate(37.709221, 285.53765)"><g><path d="M 19.1875 0 L 16.40625 0 L 5 -17.53125 L 4.890625 -17.53125 C 5.035156 -15.46875 5.109375 -13.582031 5.109375 -11.875 L 5.109375 0 L 2.875 0 L 2.875 -20.875 L 5.609375 -20.875 L 17 -3.421875 L 17.109375 -3.421875 C 17.085938 -3.679688 17.039062 -4.507812 16.96875 -5.90625 C 16.90625 -7.300781 16.882812 -8.296875 16.90625 -8.890625 L 16.90625 -20.875 L 19.1875 -20.875 Z M 19.1875 0 "/></g></g></g><g fill="#cbddd1" fill-opacity="1"><g transform="translate(65.812157, 285.53765)"><g><path d="M 19.53125 -10.640625 C 19.53125 -7.191406 18.59375 -4.554688 16.71875 -2.734375 C 14.851562 -0.910156 12.164062 0 8.65625 0 L 2.875 0 L 2.875 -20.875 L 9.265625 -20.875 C 12.515625 -20.875 15.035156 -19.972656 16.828125 -18.171875 C 18.628906 -16.378906 19.53125 -13.867188 19.53125 -10.640625 Z M 16.96875 -10.546875 C 16.96875 -13.273438 16.285156 -15.328125 14.921875 -16.703125 C 13.554688 -18.085938 11.523438 -18.78125 8.828125 -18.78125 L 5.296875 -18.78125 L 5.296875 -2.09375 L 8.25 -2.09375 C 11.144531 -2.09375 13.320312 -2.804688 14.78125 -4.234375 C 16.238281 -5.660156 16.96875 -7.765625 16.96875 -10.546875 Z M 16.96875 -10.546875 "/></g></g></g><g fill="#cbddd1" fill-opacity="1"><g transform="translate(93.186828, 285.53765)"><g><path d="M 18.640625 -20.875 L 18.640625 -7.375 C 18.640625 -4.988281 17.921875 -3.113281 16.484375 -1.75 C 15.046875 -0.394531 13.066406 0.28125 10.546875 0.28125 C 8.035156 0.28125 6.09375 -0.398438 4.71875 -1.765625 C 3.34375 -3.140625 2.65625 -5.023438 2.65625 -7.421875 L 2.65625 -20.875 L 5.078125 -20.875 L 5.078125 -7.25 C 5.078125 -5.507812 5.550781 -4.171875 6.5 -3.234375 C 7.457031 -2.304688 8.863281 -1.84375 10.71875 -1.84375 C 12.476562 -1.84375 13.832031 -2.3125 14.78125 -3.25 C 15.726562 -4.1875 16.203125 -5.53125 16.203125 -7.28125 L 16.203125 -20.875 Z M 18.640625 -20.875 "/></g></g></g><g fill="#cbddd1" fill-opacity="1"><g transform="translate(120.532936, 285.53765)"><g><path d="M 14.65625 -5.5625 C 14.65625 -3.71875 13.988281 -2.28125 12.65625 -1.25 C 11.320312 -0.226562 9.515625 0.28125 7.234375 0.28125 C 4.753906 0.28125 2.847656 -0.0351562 1.515625 -0.671875 L 1.515625 -3.015625 C 2.367188 -2.648438 3.300781 -2.363281 4.3125 -2.15625 C 5.320312 -1.945312 6.320312 -1.84375 7.3125 -1.84375 C 8.925781 -1.84375 10.144531 -2.148438 10.96875 -2.765625 C 11.789062 -3.378906 12.203125 -4.234375 12.203125 -5.328125 C 12.203125 -6.046875 12.054688 -6.632812 11.765625 -7.09375 C 11.472656 -7.5625 10.984375 -7.988281 10.296875 -8.375 C 9.617188 -8.769531 8.585938 -9.21875 7.203125 -9.71875 C 5.253906 -10.40625 3.863281 -11.222656 3.03125 -12.171875 C 2.195312 -13.128906 1.78125 -14.375 1.78125 -15.90625 C 1.78125 -17.519531 2.382812 -18.800781 3.59375 -19.75 C 4.800781 -20.707031 6.398438 -21.1875 8.390625 -21.1875 C 10.472656 -21.1875 12.382812 -20.800781 14.125 -20.03125 L 13.375 -17.921875 C 11.644531 -18.648438 9.96875 -19.015625 8.34375 -19.015625 C 7.050781 -19.015625 6.039062 -18.738281 5.3125 -18.1875 C 4.59375 -17.632812 4.234375 -16.863281 4.234375 -15.875 C 4.234375 -15.15625 4.367188 -14.5625 4.640625 -14.09375 C 4.910156 -13.632812 5.359375 -13.210938 5.984375 -12.828125 C 6.617188 -12.441406 7.585938 -12.015625 8.890625 -11.546875 C 11.085938 -10.773438 12.597656 -9.941406 13.421875 -9.046875 C 14.242188 -8.148438 14.65625 -6.988281 14.65625 -5.5625 Z M 14.65625 -5.5625 "/></g></g></g><g fill="#cbddd1" fill-opacity="1"><g transform="translate(142.638324, 285.53765)"><g><path d="M 9.296875 0 L 6.875 0 L 6.875 -18.71875 L 0.25 -18.71875 L 0.25 -20.875 L 15.90625 -20.875 L 15.90625 -18.71875 L 9.296875 -18.71875 Z M 9.296875 0 "/></g></g></g><g fill="#cbddd1" fill-opacity="1"><g transform="translate(164.872246, 285.53765)"><g><path d="M 5.296875 -8.6875 L 5.296875 0 L 2.875 0 L 2.875 -20.875 L 8.59375 -20.875 C 11.15625 -20.875 13.046875 -20.382812 14.265625 -19.40625 C 15.492188 -18.425781 16.109375 -16.953125 16.109375 -14.984375 C 16.109375 -12.222656 14.707031 -10.359375 11.90625 -9.390625 L 17.578125 0 L 14.703125 0 L 9.65625 -8.6875 Z M 5.296875 -10.765625 L 8.625 -10.765625 C 10.34375 -10.765625 11.597656 -11.101562 12.390625 -11.78125 C 13.191406 -12.46875 13.59375 -13.492188 13.59375 -14.859375 C 13.59375 -16.234375 13.1875 -17.222656 12.375 -17.828125 C 11.5625 -18.441406 10.253906 -18.75 8.453125 -18.75 L 5.296875 -18.75 Z M 5.296875 -10.765625 "/></g></g></g><g fill="#cbddd1" fill-opacity="1"><g transform="translate(189.005376, 285.53765)"><g><path d="M 2.875 0 L 2.875 -20.875 L 5.296875 -20.875 L 5.296875 0 Z M 2.875 0 "/></g></g></g><g fill="#cbddd1" fill-opacity="1"><g transform="translate(203.214004, 285.53765)"><g><path d="M 16 0 L 13.390625 -6.640625 L 5.03125 -6.640625 L 2.453125 0 L 0 0 L 8.25 -20.96875 L 10.296875 -20.96875 L 18.515625 0 Z M 12.640625 -8.828125 L 10.21875 -15.296875 C 9.894531 -16.117188 9.566406 -17.125 9.234375 -18.3125 C 9.023438 -17.394531 8.726562 -16.390625 8.34375 -15.296875 L 5.890625 -8.828125 Z M 12.640625 -8.828125 "/></g></g></g><g fill="#cbddd1" fill-opacity="1"><g transform="translate(227.77553, 285.53765)"><g/></g></g><g fill="#cbddd1" fill-opacity="1"><g transform="translate(241.427236, 285.53765)"><g><path d="M 2.875 0 L 2.875 -20.875 L 5.296875 -20.875 L 5.296875 -2.203125 L 14.515625 -2.203125 L 14.515625 0 Z M 2.875 0 "/></g></g></g><g fill="#cbddd1" fill-opacity="1"><g transform="translate(262.66156, 285.53765)"><g><path d="M 2.875 0 L 2.875 -20.875 L 5.296875 -20.875 L 5.296875 0 Z M 2.875 0 "/></g></g></g><g fill="#cbddd1" fill-opacity="1"><g transform="translate(276.870189, 285.53765)"><g><path d="M 12.109375 0 L 5.03125 -18.515625 L 4.90625 -18.515625 C 5.039062 -17.046875 5.109375 -15.300781 5.109375 -13.28125 L 5.109375 0 L 2.875 0 L 2.875 -20.875 L 6.53125 -20.875 L 13.140625 -3.65625 L 13.25 -3.65625 L 19.921875 -20.875 L 23.546875 -20.875 L 23.546875 0 L 21.125 0 L 21.125 -13.453125 C 21.125 -14.992188 21.191406 -16.671875 21.328125 -18.484375 L 21.203125 -18.484375 L 14.0625 0 Z M 12.109375 0 "/></g></g></g><g fill="#cbddd1" fill-opacity="1"><g transform="translate(309.328505, 285.53765)"><g><path d="M 16.109375 -14.796875 C 16.109375 -12.679688 15.382812 -11.054688 13.9375 -9.921875 C 12.5 -8.785156 10.4375 -8.21875 7.75 -8.21875 L 5.296875 -8.21875 L 5.296875 0 L 2.875 0 L 2.875 -20.875 L 8.28125 -20.875 C 13.5 -20.875 16.109375 -18.847656 16.109375 -14.796875 Z M 5.296875 -10.296875 L 7.484375 -10.296875 C 9.640625 -10.296875 11.195312 -10.640625 12.15625 -11.328125 C 13.113281 -12.023438 13.59375 -13.144531 13.59375 -14.6875 C 13.59375 -16.0625 13.140625 -17.085938 12.234375 -17.765625 C 11.335938 -18.441406 9.929688 -18.78125 8.015625 -18.78125 L 5.296875 -18.78125 Z M 5.296875 -10.296875 "/></g></g></g><g fill="#cbddd1" fill-opacity="1"><g transform="translate(332.990421, 285.53765)"><g><path d="M 16 0 L 13.390625 -6.640625 L 5.03125 -6.640625 L 2.453125 0 L 0 0 L 8.25 -20.96875 L 10.296875 -20.96875 L 18.515625 0 Z M 12.640625 -8.828125 L 10.21875 -15.296875 C 9.894531 -16.117188 9.566406 -17.125 9.234375 -18.3125 C 9.023438 -17.394531 8.726562 -16.390625 8.34375 -15.296875 L 5.890625 -8.828125 Z M 12.640625 -8.828125 "/></g></g></g><g fill="#cbddd1" fill-opacity="1"><g transform="translate(48.519809, 319.285438)"><g><path d="M 10.0625 0 L 1.984375 0 L 1.984375 -14.484375 L 10.0625 -14.484375 L 10.0625 -12.984375 L 3.671875 -12.984375 L 3.671875 -8.3125 L 9.671875 -8.3125 L 9.671875 -6.828125 L 3.671875 -6.828125 L 3.671875 -1.5 L 10.0625 -1.5 Z M 10.0625 0 "/></g></g></g><g fill="#cbddd1" fill-opacity="1"><g transform="translate(73.193475, 319.285438)"><g><path d="M 13.296875 0 L 11.375 0 L 3.46875 -12.15625 L 3.390625 -12.15625 C 3.492188 -10.726562 3.546875 -9.421875 3.546875 -8.234375 L 3.546875 0 L 1.984375 0 L 1.984375 -14.484375 L 3.890625 -14.484375 L 11.78125 -2.375 L 11.859375 -2.375 C 11.847656 -2.550781 11.816406 -3.125 11.765625 -4.09375 C 11.722656 -5.0625 11.707031 -5.753906 11.71875 -6.171875 L 11.71875 -14.484375 L 13.296875 -14.484375 Z M 13.296875 0 "/></g></g></g><g fill="#cbddd1" fill-opacity="1"><g transform="translate(101.878604, 319.285438)"><g><path d="M 10.265625 -14.484375 L 12.078125 -14.484375 L 6.859375 0 L 5.1875 0 L 0 -14.484375 L 1.78125 -14.484375 L 5.109375 -5.109375 C 5.492188 -4.035156 5.796875 -2.988281 6.015625 -1.96875 C 6.253906 -3.039062 6.566406 -4.109375 6.953125 -5.171875 Z M 10.265625 -14.484375 "/></g></g></g><g fill="#cbddd1" fill-opacity="1"><g transform="translate(127.344659, 319.285438)"><g><path d="M 1.984375 0 L 1.984375 -14.484375 L 3.671875 -14.484375 L 3.671875 0 Z M 1.984375 0 "/></g></g></g><g fill="#cbddd1" fill-opacity="1"><g transform="translate(146.392364, 319.285438)"><g><path d="M 3.671875 -6.015625 L 3.671875 0 L 1.984375 0 L 1.984375 -14.484375 L 5.96875 -14.484375 C 7.738281 -14.484375 9.046875 -14.140625 9.890625 -13.453125 C 10.742188 -12.773438 11.171875 -11.753906 11.171875 -10.390625 C 11.171875 -8.472656 10.203125 -7.175781 8.265625 -6.5 L 12.1875 0 L 10.203125 0 L 6.6875 -6.015625 Z M 3.671875 -7.46875 L 5.984375 -7.46875 C 7.171875 -7.46875 8.039062 -7.703125 8.59375 -8.171875 C 9.144531 -8.648438 9.421875 -9.359375 9.421875 -10.296875 C 9.421875 -11.253906 9.140625 -11.941406 8.578125 -12.359375 C 8.015625 -12.785156 7.109375 -13 5.859375 -13 L 3.671875 -13 Z M 3.671875 -7.46875 "/></g></g></g><g fill="#cbddd1" fill-opacity="1"><g transform="translate(172.323942, 319.285438)"><g><path d="M 14.5625 -7.265625 C 14.5625 -4.941406 13.972656 -3.113281 12.796875 -1.78125 C 11.628906 -0.457031 10 0.203125 7.90625 0.203125 C 5.78125 0.203125 4.132812 -0.445312 2.96875 -1.75 C 1.8125 -3.0625 1.234375 -4.90625 1.234375 -7.28125 C 1.234375 -9.632812 1.8125 -11.457031 2.96875 -12.75 C 4.132812 -14.050781 5.789062 -14.703125 7.9375 -14.703125 C 10.007812 -14.703125 11.628906 -14.039062 12.796875 -12.71875 C 13.972656 -11.40625 14.5625 -9.585938 14.5625 -7.265625 Z M 3.015625 -7.265625 C 3.015625 -5.296875 3.429688 -3.804688 4.265625 -2.796875 C 5.109375 -1.785156 6.320312 -1.28125 7.90625 -1.28125 C 9.507812 -1.28125 10.722656 -1.785156 11.546875 -2.796875 C 12.367188 -3.804688 12.78125 -5.296875 12.78125 -7.265625 C 12.78125 -9.210938 12.367188 -10.6875 11.546875 -11.6875 C 10.734375 -12.695312 9.53125 -13.203125 7.9375 -13.203125 C 6.332031 -13.203125 5.109375 -12.691406 4.265625 -11.671875 C 3.429688 -10.660156 3.015625 -9.191406 3.015625 -7.265625 Z M 3.015625 -7.265625 "/></g></g></g><g fill="#cbddd1" fill-opacity="1"><g transform="translate(201.514225, 319.285438)"><g><path d="M 13.296875 0 L 11.375 0 L 3.46875 -12.15625 L 3.390625 -12.15625 C 3.492188 -10.726562 3.546875 -9.421875 3.546875 -8.234375 L 3.546875 0 L 1.984375 0 L 1.984375 -14.484375 L 3.890625 -14.484375 L 11.78125 -2.375 L 11.859375 -2.375 C 11.847656 -2.550781 11.816406 -3.125 11.765625 -4.09375 C 11.722656 -5.0625 11.707031 -5.753906 11.71875 -6.171875 L 11.71875 -14.484375 L 13.296875 -14.484375 Z M 13.296875 0 "/></g></g></g><g fill="#cbddd1" fill-opacity="1"><g transform="translate(230.199354, 319.285438)"><g><path d="M 8.390625 0 L 3.484375 -12.828125 L 3.40625 -12.828125 C 3.5 -11.816406 3.546875 -10.609375 3.546875 -9.203125 L 3.546875 0 L 1.984375 0 L 1.984375 -14.484375 L 4.53125 -14.484375 L 9.109375 -2.53125 L 9.1875 -2.53125 L 13.8125 -14.484375 L 16.328125 -14.484375 L 16.328125 0 L 14.640625 0 L 14.640625 -9.328125 C 14.640625 -10.398438 14.6875 -11.5625 14.78125 -12.8125 L 14.703125 -12.8125 L 9.75 0 Z M 8.390625 0 "/></g></g></g><g fill="#cbddd1" fill-opacity="1"><g transform="translate(261.90546, 319.285438)"><g><path d="M 10.0625 0 L 1.984375 0 L 1.984375 -14.484375 L 10.0625 -14.484375 L 10.0625 -12.984375 L 3.671875 -12.984375 L 3.671875 -8.3125 L 9.671875 -8.3125 L 9.671875 -6.828125 L 3.671875 -6.828125 L 3.671875 -1.5 L 10.0625 -1.5 Z M 10.0625 0 "/></g></g></g><g fill="#cbddd1" fill-opacity="1"><g transform="translate(286.579126, 319.285438)"><g><path d="M 13.296875 0 L 11.375 0 L 3.46875 -12.15625 L 3.390625 -12.15625 C 3.492188 -10.726562 3.546875 -9.421875 3.546875 -8.234375 L 3.546875 0 L 1.984375 0 L 1.984375 -14.484375 L 3.890625 -14.484375 L 11.78125 -2.375 L 11.859375 -2.375 C 11.847656 -2.550781 11.816406 -3.125 11.765625 -4.09375 C 11.722656 -5.0625 11.707031 -5.753906 11.71875 -6.171875 L 11.71875 -14.484375 L 13.296875 -14.484375 Z M 13.296875 0 "/></g></g></g><g fill="#cbddd1" fill-opacity="1"><g transform="translate(315.264267, 319.285438)"><g><path d="M 6.453125 0 L 4.765625 0 L 4.765625 -12.984375 L 0.171875 -12.984375 L 0.171875 -14.484375 L 11.03125 -14.484375 L 11.03125 -12.984375 L 6.453125 -12.984375 Z M 6.453125 0 "/></g></g></g></svg>